<?xml version="1.0" encoding="UTF-8" standalone="no"?>
<!-- Created with Inkscape (http://www.inkscape.org/) -->

<svg
   width="180"
   height="180"
   viewBox="0 0 180 180"
   version="1.1"
   id="svg1"
   xml:space="preserve"
   xmlns="http://www.w3.org/2000/svg"
   xmlns:svg="http://www.w3.org/2000/svg"><defs
     id="defs1" /><g
     id="layer1"><g
       id="g2"
       transform="matrix(0.22760317,0,0,0.22760317,-2.3147237,29.473812)"><path
         style="display:none;fill:#fefefe"
         d="M 0,561.5 V 0 H 397 794 V 561.5 1123 H 397 0 Z M 331.80814,439.9756 c 3.74154,-2.28115 7.13648,-8.78022 7.1699,-13.7256 0.019,-2.80586 -0.31969,-3.25 -2.47804,-3.25 -1.95768,0 -2.5,0.50995 -2.5,2.35078 0,3.71455 -2.04108,8.60084 -4.03944,9.67033 -2.63788,1.41175 -3.71165,1.2278 -5.96056,-1.02111 -1.82745,-1.82745 -2,-3.33333 -2,-17.45431 v -15.45431 l 6.75,-0.29569 c 6.1332,-0.26867 6.7792,-0.50129 7.06955,-2.54569 0.30553,-2.15129 0.009,-2.25 -6.75,-2.25 H 322 v -9.5 c 0,-9.32101 -0.0445,-9.5 -2.36408,-9.5 -2.04407,0 -2.44762,0.60956 -2.9813,4.5032 -0.95863,6.9939 -4.0339,12.14289 -8.13905,13.62733 -2.63274,0.95201 -3.51557,1.8486 -3.51557,3.57036 0,1.9479 0.51926,2.29911 3.39917,2.29911 h 3.39917 l 0.37375,16.75 c 0.24339,10.90811 0.81048,17.52819 1.62597,18.98124 2.92773,5.21668 12.07298,6.86412 18.01008,3.24436 z M 122,438.5 c 0,-1.96491 -0.50833,-2.5 -2.375,-2.5 -1.30625,0 -3.78125,-0.28125 -5.5,-0.625 L 111,434.75 V 422.375 410 h 10.13398 c 12.25083,0 17.05522,-1.30584 21.93753,-5.96265 4.57999,-4.36845 6.44997,-10.07417 5.46166,-16.6647 -0.89827,-5.99013 -6.89625,-12.54733 -13.03647,-14.25195 -2.34893,-0.6521 -12.78638,-1.11185 -25.31625,-1.11512 L 88.860898,372 l 0.319551,2.25 c 0.2688,1.89266 1.031624,2.30065 4.803123,2.56891 2.465965,0.1754 4.821574,0.8504 5.234687,1.5 0.886621,1.39417 1.057361,52.79926 0.18294,55.07797 -0.374351,0.97554 -2.435934,1.80415 -5.5,2.21061 C 90.204189,436.09792 89,436.67645 89,437.96216 c 0,0.93748 0.3,2.00451 0.666667,2.37117 C 90.033333,440.7 97.458333,441 106.16667,441 H 122 Z M 111.22178,391.25 111.5,377.5 l 8.81019,-0.28981 8.81019,-0.28981 3.43981,3.43981 c 3.49913,3.49913 4.02884,5.562 3.50248,13.63981 -0.50886,7.80907 -5.60239,11 -17.55877,11 h -7.56034 z M 178,439.0879 c 0,-1.45174 -0.96381,-2.07494 -4.00314,-2.58843 -2.96118,-0.50029 -4.14349,-1.23895 -4.54234,-2.8379 -0.78705,-3.15523 1.16732,-18.43336 3.02497,-23.6474 2.25105,-6.31825 9.89688,-13.9261 8.00497,-7.96521 -0.38285,1.20626 0.0102,3.05704 0.95566,4.5 3.18979,4.86823 10.55988,1.98115 10.55988,-4.13661 0,-3.06967 -3.48864,-7.07691 -6.7275,-7.72755 -4.31475,-0.86677 -10.82093,2.75185 -13.75814,7.65204 l -2.49544,4.16316 -0.009,-5.25 L 169,396 h -3.86043 c -2.12323,0 -5.94823,0.28617 -8.5,0.63592 -3.99276,0.54727 -4.63957,0.95709 -4.63957,2.93964 0,1.94022 0.59169,2.35268 3.75,2.61407 L 159.5,402.5 v 16.5 16.5 l -3.75,0.92637 c -3.49545,0.86348 -4.65611,2.33418 -3.08333,3.90696 0.36666,0.36667 6.21666,0.66667 13,0.66667 C 177.14435,441 178,440.86734 178,439.0879 Z m 64.4917,-3.3379 c -1.81077,-12.08138 -2.11794,-209.01873 -0.36614,-234.75 0.30288,-4.44894 0.0878,-5.46325 -1.12556,-5.30767 -15.32161,1.96456 -60.07506,5.00694 -86.90734,5.90803 l -20.40735,0.68533 0.60293,-12.89284 c 1.00866,-21.56909 4.78159,-32.06978 13.70562,-38.14498 5.66942,-3.85955 10.61032,-4.75342 25.75614,-4.65958 l 14.25,0.0883 v -3.16015 c 0,-5.17197 2.89602,-12.11673 6.99435,-16.77267 3.45759,-3.92803 5.67981,-5.27436 13.9852,-8.47292 5.17776,-1.99405 -12.9778,-3.77388 -37.97955,-3.72323 -20.97633,0.0425 -24.33721,0.28099 -31.29592,2.22083 -22.97065,6.4034 -36.09451,18.94698 -42.615841,40.73156 -2.859529,9.55229 -5.075239,25.18326 -5.082344,35.85396 L 92,202.20792 77.514724,201.4838 c -11.858905,-0.59283 -14.563418,-0.47569 -14.916256,0.64604 -0.23704,0.75359 -0.683982,8.74254 -0.993206,17.75324 l -0.562224,16.38307 15.538182,-0.72236 15.538181,-0.72236 -0.640848,38.83929 C 91.126087,295.02232 90.467496,324.425 90.015018,339 c -0.452477,14.575 -0.614403,26.8375 -0.359835,27.25 0.254568,0.4125 10.855067,0.75 23.556677,0.75 h 23.09382 l -0.64976,-14.75 c -0.35736,-8.1125 -0.94782,-37.73901 -1.31212,-65.83669 l -0.66237,-51.08669 22.90928,-0.64904 c 12.60011,-0.35698 26.57747,-0.94375 31.06079,-1.30394 l 8.15151,-0.65488 0.70699,7.54471 c 0.89426,9.5431 -0.22565,182.56078 -1.24916,192.98662 l -0.76084,7.75009 24.38929,-9e-5 24.38929,-9e-5 z M 272,439.04531 c 0,-1.44984 -0.92292,-2.12782 -3.5734,-2.62506 l -3.5734,-0.67037 0.3234,-13.95435 0.3234,-13.95434 3.73531,-3.4206 c 4.55581,-4.17195 8.74583,-4.53036 12.23004,-1.04615 2.96557,2.96557 3.73997,7.97758 3.34134,21.62556 l -0.30669,10.5 -3.75,0.92637 c -2.62379,0.64815 -3.75,1.47404 -3.75,2.75 0,1.66758 1.06963,1.82363 12.5,1.82363 11.61556,0 12.5,-0.13448 12.5,-1.90066 0,-1.37243 -1.04219,-2.14644 -3.75,-2.78502 l -3.75,-0.88436 -0.5,-15.96498 c -0.55256,-17.64308 -1.30543,-20.00282 -7.3985,-23.18908 -6.30286,-3.29596 -17.42169,-0.83492 -20.5649,4.55184 -0.80335,1.37675 -0.98116,1.18076 -1.00619,-1.10912 -0.0397,-3.63298 -1.54418,-4.09287 -10.61006,-3.24332 -6.97232,0.65336 -7.51267,0.86757 -7.22801,2.86542 0.23106,1.62165 1.17912,2.28377 3.80766,2.65928 l 3.5,0.5 v 16.5 16.5 l -3.75,0.92637 c -3.49545,0.86348 -4.65611,2.33418 -3.08333,3.90696 C 248.03333,440.7 253.65833,441 260.16667,441 271.24189,441 272,440.87477 272,439.04531 Z m 206.57725,-59.13774 c 9.30751,-9.95083 17.07275,-18.50083 17.25608,-19 C 496.01756,360.40599 492.07418,360 487.01804,360 h -9.14863 l 0.22715,-7.75 0.22715,-7.75 -17.16186,-0.27361 L 444,343.95277 v 7.9383 7.93829 l -7.75,0.65918 c -4.2625,0.36255 -8.13321,0.75368 -8.60158,0.86918 -0.46837,0.1155 4.72988,6.04476 11.55167,13.17614 6.82178,7.13138 14.57907,15.32864 17.23842,18.21614 2.65935,2.8875 4.92086,5.25 5.02558,5.25 0.10473,0 7.80565,-8.14159 17.11316,-18.09243 z M 325.62667,356.25 c -1.3482,-24.14882 -1.87198,-177.01021 -0.71313,-208.12563 0.6427,-17.25659 1.00816,-31.53601 0.81213,-31.73203 -0.48983,-0.48984 -49.80452,2.35318 -50.35429,2.90294 -0.24269,0.24269 0.24157,8.26304 1.07614,17.82299 3.11184,35.64606 3.81597,64.82646 3.18236,131.88173 -0.34041,36.025 -0.91022,72.8125 -1.26624,81.75 L 277.71632,367 h 24.25526 24.25526 z m 317.52021,-51.75 -0.35312,-62 5.57433,-3.35461 c 20.7267,-12.47326 43.68799,-13.14195 55.22175,-1.60818 3.1471,3.1471 4.85789,6.07118 6.50397,11.11658 3.71395,11.38361 3.81396,54.78388 0.25024,108.59621 l -0.6457,9.75 23.40083,5e-5 23.40082,5e-5 -0.13073,-64.7602 c -0.1438,-71.2309 -0.12756,-71.01848 -6.41662,-83.92472 -5.31224,-10.90162 -16.96981,-19.13036 -32.5531,-22.97827 -10.28247,-2.53901 -31.4006,-2.27468 -41.77771,0.52292 -9.89634,2.66799 -20.47841,7.72423 -28.45456,13.59594 C 643.77219,211.9551 640.5814,214 640.07665,214 c -0.9732,0 -1.35969,-1.50051 -3.15364,-12.24357 -1.02278,-6.12497 -1.32316,-6.7019 -3.27454,-6.2893 -1.18166,0.24984 -11.14847,1.42047 -22.14847,2.6014 -11,1.18093 -20.16751,2.30362 -20.37224,2.49488 -0.20473,0.19125 0.56894,5.43023 1.71927,11.64216 6.63981,35.85579 7.76421,82.57592 3.50324,145.56286 l -0.62699,9.26842 23.88836,-0.26842 L 643.5,366.5 Z m -232.32219,51.88447 5.32468,-0.54705 -5.57468,-5.84447 C 407.50861,346.77849 405,343.76065 405,343.28665 c 0,-0.47401 2.25,-3.078 5,-5.78665 2.75,-2.70865 5,-5.21672 5,-5.57349 0,-0.35677 -5.2357,-5.92337 -11.6349,-12.37021 l -11.6349,-11.72154 -5.14654,5.08262 c -2.8306,2.79544 -5.72831,5.08262 -6.43934,5.08262 -0.71104,0 -3.88983,-2.47716 -7.06399,-5.50479 l -5.7712,-5.50479 -0.65051,12.75479 c -0.35778,7.01513 -0.65233,18.52755 -0.65456,25.58314 l -0.004,12.82836 19.75,-0.6126 c 10.8625,-0.33692 22.14611,-0.85876 25.07469,-1.15964 z M 557.48076,333.25 c -0.39681,-13.6125 -0.88732,-24.9325 -1.09001,-25.15556 -0.2027,-0.22306 -2.8216,1.91444 -5.81978,4.75 C 547.57278,315.68 544.51617,318 543.77851,318 c -0.73767,0 -3.70021,-2.25 -6.58342,-5 -2.88321,-2.75 -5.39548,-5 -5.58282,-5 -0.18735,0 -5.40562,5.41206 -11.59616,12.0268 l -11.25554,12.0268 5.21139,5.51027 c 5.87382,6.21069 5.97848,5.42716 -1.82049,13.62811 -4.37362,4.59905 -4.41435,4.70318 -2.05673,5.2572 1.32289,0.31087 8.93026,0.68786 16.90526,0.83776 7.975,0.14989 18.25801,0.37165 22.85112,0.4928 L 558.20225,358 Z m -81.91822,0.52079 c 0.33111,-0.3311 0.16059,-4.25327 -0.37892,-8.71593 -0.53952,-4.46265 -0.75873,-8.96363 -0.48715,-10.00217 0.50268,-1.92225 7.92026,-5.67328 13.04137,-6.59495 2.46283,-0.44324 3.33773,0.26361 8.07334,6.52257 2.92114,3.86083 6.0066,7.01969 6.85658,7.01969 1.63164,0 15.18349,-12.62023 18.45135,-17.18291 l 1.92153,-2.68291 -8.02032,-5.7422 C 510.60914,293.23377 507,290.34697 507,289.97688 c 0,-0.37009 1.28179,-3.77879 2.84842,-7.57489 l 2.84842,-6.90199 9.65806,0.29805 c 9.60772,0.2965 9.66324,0.28443 10.65158,-2.3151 1.45816,-3.83526 1.2653,-21.73143 -0.25648,-23.79905 -1.11547,-1.51556 -2.14821,-1.5853 -9.59554,-0.64797 -6.06766,0.76368 -8.71264,0.74571 -9.69049,-0.0658 -1.3503,-1.12065 -6.99658,-14.84024 -6.3233,-15.36464 0.19763,-0.15394 3.86907,-2.8478 8.15875,-5.98637 l 7.79942,-5.70648 -3.02325,-3.81717 C 516.60093,213.70833 504.30063,202 503.16636,202 c -1.02144,0 -7.31198,6.71026 -10.07759,10.75 -1.47052,2.14799 -3.0399,3.25 -4.62835,3.25 -2.78972,0 -12.88842,-4.26547 -13.87392,-5.86003 -0.36824,-0.59583 -0.12998,-4.9402 0.52947,-9.65416 0.87481,-6.25336 0.90042,-8.86942 0.0947,-9.67509 -1.4854,-1.4854 -14.39211,-2.1582 -21.21072,-1.10567 l -5.5,0.84899 0.34916,10.13473 c 0.39659,11.51143 0.8665,10.79653 -9.42374,14.33689 l -5.37914,1.85069 -5.86654,-7.18817 c -3.4425,-4.21804 -6.56723,-7.12809 -7.56231,-7.04276 -1.98067,0.16985 -9.3133,6.75362 -15.34561,13.77841 -4.90706,5.71442 -5.0559,5.32293 4.80208,12.63095 l 6.84577,5.07498 -2.03473,5.18512 c -3.65818,9.32219 -4.26416,10.1987 -6.91914,10.0081 -1.35619,-0.0974 -5.96643,-0.50065 -10.24497,-0.89621 l -7.77917,-0.71919 0.27917,13.89621 L 390.5,275.5 395,275.4474 c 2.475,-0.029 6.94026,-0.23164 9.92279,-0.45041 l 5.4228,-0.39777 3.26522,7.6517 3.26522,7.65171 -6.82395,5.0588 c -9.60349,7.11936 -9.56008,7.03816 -6.22232,11.63991 2.56214,3.53241 16.23987,16.3987 17.43292,16.3987 0.27225,0 3.03523,-3.375 6.13995,-7.5 3.20558,-4.25899 6.39091,-7.49966 7.37116,-7.49921 0.94942,4.3e-4 4.57001,1.34613 8.04577,2.99043 l 6.31956,2.98965 -0.71847,8.23634 c -0.39516,4.52999 -0.76396,8.89063 -0.81956,9.69031 -0.0556,0.79967 1.02391,1.80458 2.39891,2.23313 2.81492,0.87732 24.63101,0.56168 25.56254,-0.36986 z m -24.52499,-44.80716 c -17.9545,-6.45618 -24.05234,-31.07187 -11.36809,-45.89057 13.33727,-15.5816 39.07245,-12.51711 48.02758,5.71903 3.70348,7.54172 3.90747,19.1595 0.46146,26.28155 -6.41931,13.26714 -22.3136,19.2145 -37.12095,13.88999 z M 363,288 v -8 h 6.4349 c 3.5392,0 7.53689,-0.41898 8.88377,-0.93106 2.334,-0.88738 2.4039,-1.15712 1.49006,-5.75 -0.52735,-2.65042 -0.68169,-9.88144 -0.34299,-16.06894 L 380.08156,246 H 372.16578 364.25 l -0.625,-3.125 c -0.34375,-1.71875 -0.625,-5.58125 -0.625,-8.58333 0,-3.02973 -0.42447,-5.31002 -0.95401,-5.125 -0.5247,0.18333 -8.86629,7.68655 -18.53687,16.67381 l -17.58286,16.34048 17.28687,16.86168 c 9.50778,9.27392 17.84937,16.88321 18.53687,16.90952 C 362.64982,295.9866 363,293.75885 363,288 Z M 584.78935,274.04315 C 590.95521,268.29189 596,262.883 596,262.0234 596,259.7513 563.159,228 560.80893,228 c -0.6293,0 -0.73119,3.0886 -0.28042,8.5 l 0.70804,8.5 h -9.14304 -9.14305 l 0.27477,16.25 0.27477,16.25 7.8002,0.63353 c 4.2901,0.34844 8.0116,0.84494 8.26999,1.10332 0.25838,0.25839 0.75172,4.12573 1.09629,8.59409 l 0.6265,8.1243 6.14286,-5.72762 c 3.37857,-3.15019 11.18765,-10.4332 17.35351,-16.18447 z m -198.7275,-63.51305 6.0643,5.9699 3.15367,-4 c 4.01803,-5.09631 9.99116,-11.0773 15.68929,-15.70995 l 4.46912,-3.63344 -5.21912,-5.51844 C 407.3486,184.60302 405,181.60938 405,180.98562 c 0,-0.62375 2.48507,-3.73943 5.52237,-6.92373 l 5.52238,-5.78963 -13.77238,-0.64662 c -7.5748,-0.35564 -19.11326,-0.92791 -25.64102,-1.2717 l -11.86865,-0.62508 0.59935,11.88557 c 0.32964,6.53706 0.88187,18.12417 1.22717,25.74912 l 0.62783,13.86355 6.39026,-6.33345 6.39025,-6.33346 z m 171.9997,-43.64504 C 557.7527,166.54685 548.275,166.63021 537,167.07032 c -11.275,0.44011 -22.45026,0.82933 -24.8339,0.86494 l -4.33391,0.0647 5.58391,6.17041 c 3.07114,3.39373 5.5839,6.4539 5.5839,6.80039 0,0.34648 -2.24745,3.15154 -4.99432,6.23347 l -4.99433,5.60351 11.58478,11.7253 11.58477,11.7253 5.65955,-5.55014 5.65955,-5.55014 6.5,6.02958 6.5,6.02958 1.06155,-24.85863 c 0.58385,-13.67225 0.80885,-25.13535 0.5,-25.47357 z M 480,172 v -8 l 5.75,-0.11831 c 12.85179,-0.26445 13.19191,0.77677 -6.33112,-19.38169 l -17.43261,-18 -8.07113,8.5 c -4.43912,4.675 -12.08187,12.8293 -16.98388,18.12066 l -8.91274,9.62066 3.74074,0.61833 c 2.05741,0.34009 5.87824,0.62329 8.49074,0.62934 L 445,164 v 8 8 h 17.5 17.5 z m -246.38026,0.71987 c 12.26676,-6.28115 18.42729,-21.81774 14.2197,-35.86143 -1.5036,-5.01857 -6.96006,-11.34347 -12.19689,-14.13809 -5.90851,-3.15308 -19.02102,-3.09192 -26.14255,0.12192 -11.04883,4.98618 -16.95794,14.46033 -16.93852,27.15773 0.01,6.40015 0.44231,8.28753 2.94937,12.87025 5.31399,9.71354 12.41846,13.35707 24.98915,12.81569 6.20034,-0.26702 9.15172,-0.93426 13.11974,-2.96607 z"
         id="path5" /><path
         style="fill:#9d9d9d"
         d="m 89.374286,439.53299 c -0.30962,-0.80686 -0.331023,-2.04436 -0.04756,-2.75 0.28346,-0.70564 0.550909,-0.27049 0.59433,0.96701 0.07834,2.23271 0.197507,2.25 15.509394,2.25 15.20687,0 15.43673,-0.0326 15.86382,-2.25 0.37157,-1.92915 0.45279,-1.85784 0.56955,0.5 L 122,441 h -16.03138 c -13.167411,0 -16.131959,-0.26208 -16.594334,-1.46701 z m 62.970794,-0.0761 c -0.32569,-0.84872 -0.31156,-1.82372 0.0314,-2.16666 0.34295,-0.34295 0.62354,0.11301 0.62354,1.01325 0,1.41379 1.73706,1.67937 12.75,1.94933 l 12.75,0.31255 -12.78138,0.21733 c -10.73257,0.18249 -12.87631,-0.03 -13.37354,-1.3258 z m 95,0 c -0.32569,-0.84872 -0.31156,-1.82372 0.0314,-2.16666 0.34295,-0.34295 0.62354,0.11261 0.62354,1.01234 0,1.40837 1.70372,1.67964 12.25,1.95045 l 12.25,0.31456 -12.28138,0.21622 c -10.28144,0.18101 -12.37782,-0.0351 -12.87354,-1.32691 z M 277.116,438.75 c 0.0873,-1.69317 0.22918,-1.81691 0.57333,-0.5 0.40167,1.53705 1.83884,1.75 11.81067,1.75 9.97183,0 11.409,-0.21295 11.81067,-1.75 0.34415,-1.31691 0.48604,-1.19317 0.57333,0.5 0.11443,2.21952 -0.0533,2.25 -12.384,2.25 -12.33067,0 -12.49843,-0.0305 -12.384,-2.25 z m 37.75644,-0.5 c -1.24387,-1.58606 -1.2085,-1.62143 0.37756,-0.37756 1.66575,1.30637 2.19548,2.12756 1.37244,2.12756 -0.20765,0 -0.99515,-0.7875 -1.75,-1.75 z M 242.15789,436 c 0,-1.375 0.22698,-1.9375 0.50439,-1.25 0.27741,0.6875 0.27741,1.8125 0,2.5 -0.27741,0.6875 -0.50439,0.125 -0.50439,-1.25 z m -70.34539,0.31689 c 0.72187,-0.28887 1.58437,-0.25335 1.91667,0.0789 0.33229,0.33229 -0.25834,0.56864 -1.3125,0.52522 -1.16495,-0.048 -1.4019,-0.28494 -0.60417,-0.60416 z m 95,0 c 0.72187,-0.28887 1.58438,-0.25335 1.91667,0.0789 0.33229,0.33229 -0.25834,0.56864 -1.3125,0.52522 -1.16495,-0.048 -1.4019,-0.28494 -0.60417,-0.60416 z m 30,0 c 0.72187,-0.28887 1.58438,-0.25335 1.91667,0.0789 0.33229,0.33229 -0.25834,0.56864 -1.3125,0.52522 -1.16495,-0.048 -1.4019,-0.28494 -0.60417,-0.60416 z m -201,-1 c 0.721875,-0.28887 1.584375,-0.25335 1.916667,0.0789 0.332291,0.33229 -0.258334,0.56864 -1.3125,0.52522 -1.164943,-0.048 -1.4019,-0.28494 -0.604167,-0.60416 z m 17,0 c 0.72187,-0.28887 1.58437,-0.25335 1.91667,0.0789 0.33229,0.33229 -0.25834,0.56864 -1.3125,0.52522 -1.16495,-0.048 -1.4019,-0.28494 -0.60417,-0.60416 z M 264.37817,424 c 0,-6.325 0.16237,-8.9125 0.36082,-5.75 0.19845,3.1625 0.19845,8.3375 0,11.5 -0.19845,3.1625 -0.36082,0.575 -0.36082,-5.75 z m 58.08071,9.93347 c -0.36253,-0.58659 -0.44468,-1.281 -0.18255,-1.54313 0.26212,-0.26213 0.74306,0.21781 1.06875,1.06653 0.67618,1.76211 0.0999,2.07206 -0.8862,0.4766 z M 110.38176,421.5 c 0.002,-6.6 0.16382,-9.16987 0.35965,-5.71081 0.19583,3.45905 0.19422,8.85905 -0.004,12 -0.19781,3.14094 -0.35803,0.31081 -0.35606,-6.28919 z M 312,416.06037 v -14.93964 l -3.75,-0.39226 -3.75,-0.39226 4.25,-0.16811 L 313,400 v 15.5 c 0,8.525 -0.225,15.5 -0.5,15.5 -0.275,0 -0.5,-6.72284 -0.5,-14.93963 z m -116.92105,12.3563 c 0.048,-1.16495 0.28494,-1.4019 0.60416,-0.60417 0.28887,0.72187 0.25335,1.58438 -0.0789,1.91667 -0.3323,0.33229 -0.56864,-0.25834 -0.52522,-1.3125 z M 338.15789,428 c 0,-1.375 0.22698,-1.9375 0.50439,-1.25 0.27741,0.6875 0.27741,1.8125 0,2.5 -0.27741,0.6875 -0.50439,0.125 -0.50439,-1.25 z m -168.90571,-4.5 c 0.0111,-2.2 0.21589,-2.98225 0.45508,-1.73834 0.23919,1.24391 0.23011,3.04391 -0.0202,4 -0.25029,0.95609 -0.446,-0.0617 -0.4349,-2.26166 z M 321.45472,413.75143 321.5,400.5 l 6.68625,-0.29424 c 5.32089,-0.23415 6.77038,-0.64256 7.09828,-2 0.29496,-1.22108 0.38411,-1.13748 0.31375,0.29424 -0.0865,1.76066 -0.90262,2.03531 -6.81957,2.29504 l -6.72129,0.29503 -0.32398,12.95639 -0.32399,12.95639 z m 12.62423,10.66524 c 0.048,-1.16495 0.28494,-1.4019 0.60416,-0.60417 0.28887,0.72187 0.25335,1.58438 -0.0789,1.91667 -0.33229,0.33229 -0.56864,-0.25834 -0.52522,-1.3125 z M 241.15789,418 c 0,-1.375 0.22698,-1.9375 0.50439,-1.25 0.27741,0.6875 0.27741,1.8125 0,2.5 -0.27741,0.6875 -0.50439,0.125 -0.50439,-1.25 z M 129.75,409.33772 c 0.6875,-0.27741 1.8125,-0.27741 2.5,0 0.6875,0.27741 0.125,0.50439 -1.25,0.50439 -1.375,0 -1.9375,-0.22698 -1.25,-0.50439 z m 154.32895,-0.92105 c 0.048,-1.16495 0.28494,-1.4019 0.60416,-0.60417 0.28887,0.72187 0.25335,1.58438 -0.0789,1.91667 -0.33229,0.33229 -0.56864,-0.25834 -0.52522,-1.3125 z m -96.99562,0.30036 c 0.22917,-0.15563 1.31667,-0.94313 2.41667,-1.75 1.85001,-1.35701 1.89707,-1.33579 0.62756,0.28297 -0.75485,0.9625 -1.84235,1.75 -2.41667,1.75 -0.57432,0 -0.85672,-0.12734 -0.62756,-0.28297 z M 196.19495,404.5 c 0.0204,-1.65 0.2445,-2.20394 0.49804,-1.23097 0.25354,0.97297 0.23687,2.32297 -0.0371,3 -0.27393,0.67703 -0.48137,-0.11903 -0.46099,-1.76903 z M 268,404.5 c 1.29175,-1.375 2.57363,-2.5 2.84863,-2.5 0.275,0 -0.55688,1.125 -1.84863,2.5 -1.29175,1.375 -2.57363,2.5 -2.84863,2.5 -0.275,0 0.55688,-1.125 1.84863,-2.5 z m -157.56478,0.19178 c -0.2761,-0.71952 -0.35875,-6.68202 -0.18365,-13.25 l 0.31836,-11.94178 0.21504,12.70431 0.21503,12.70431 6.75,0.34983 6.75,0.34983 -6.78138,0.19586 c -4.81028,0.13893 -6.92731,-0.18439 -7.2834,-1.11236 z M 143,403.5 c 1.29175,-1.375 2.57363,-2.5 2.84863,-2.5 0.275,0 -0.55688,1.125 -1.84863,2.5 -1.29175,1.375 -2.57363,2.5 -2.84863,2.5 -0.275,0 0.55688,-1.125 1.84863,-2.5 z m 37.07895,-0.0833 c 0.048,-1.16495 0.28494,-1.4019 0.60416,-0.60417 0.28887,0.72187 0.25335,1.58438 -0.0789,1.91667 -0.3323,0.33229 -0.56864,-0.25834 -0.52522,-1.3125 z m 11.116,-0.91667 c 0.0204,-1.65 0.2445,-2.20394 0.49804,-1.23097 0.25354,0.97297 0.23687,2.32297 -0.0371,3 -0.27393,0.67703 -0.48137,-0.11903 -0.46099,-1.76903 z M 176.5,402 c 0.99549,-1.1 2.03498,-2 2.30998,-2 0.275,0 -0.31449,0.9 -1.30998,2 -0.99549,1.1 -2.03498,2 -2.30998,2 -0.275,0 0.31449,-0.9 1.30998,-2 z m -44.5,0.62244 c 0,-0.20765 0.7875,-0.99515 1.75,-1.75 1.58606,-1.24387 1.62143,-1.2085 0.37756,0.37756 C 132.82119,402.91575 132,403.44548 132,402.62244 Z M 155.5,402 l -4,-0.71619 3.69098,-0.1419 c 2.03004,-0.0781 3.9691,0.30809 4.30902,0.85809 0.33992,0.55 0.47898,0.93614 0.30902,0.85809 C 159.63906,402.78005 157.7,402.3939 155.5,402 Z m 95.5,0.11836 c -2.72874,-0.4821 -3.52932,-1.11755 -3.63305,-2.88369 -0.11068,-1.8844 -0.057,-1.92644 0.31955,-0.25 0.32507,1.44745 1.26171,2.01533 3.32403,2.01533 1.57929,0 3.14955,0.45 3.48947,1 0.33992,0.55 0.47898,0.94076 0.30902,0.86836 -0.16996,-0.0724 -1.88402,-0.4099 -3.80902,-0.75 z M 264.232,400 c 0,-1.925 0.2058,-2.7125 0.45733,-1.75 0.25152,0.9625 0.25152,2.5375 0,3.5 -0.25153,0.9625 -0.45733,0.175 -0.45733,-1.75 z m 1.768,0.62244 c 0,-0.20765 0.7875,-0.99515 1.75,-1.75 1.58606,-1.24387 1.62143,-1.2085 0.37756,0.37756 C 266.82119,400.91575 266,401.44548 266,400.62244 Z M 288.87244,398.25 c -1.24387,-1.58606 -1.2085,-1.62143 0.37756,-0.37756 1.66575,1.30637 2.19548,2.12756 1.37244,2.12756 -0.20765,0 -0.99515,-0.7875 -1.75,-1.75 z M 240.46203,352 c 0,-26.125 0.12919,-36.8125 0.28709,-23.75 0.15789,13.0625 0.15789,34.4375 0,47.5 -0.1579,13.0625 -0.28709,2.375 -0.28709,-23.75 z M 159.75,396.29427 c 1.2375,-0.23836 3.2625,-0.23836 4.5,0 1.2375,0.23835 0.225,0.43337 -2.25,0.43337 -2.475,0 -3.4875,-0.19502 -2.25,-0.43337 z m 96.01166,-0.002 c 1.24391,-0.23919 3.04391,-0.23011 4,0.0202 0.95609,0.25029 -0.0617,0.446 -2.26166,0.4349 -2.2,-0.0111 -2.98225,-0.21589 -1.73834,-0.45508 z M 136.15789,394 c 0,-1.375 0.22698,-1.9375 0.50439,-1.25 0.27741,0.6875 0.27741,1.8125 0,2.5 -0.27741,0.6875 -0.50439,0.125 -0.50439,-1.25 z M 321,387 c 0,-7.09804 -0.29938,-9 -1.41667,-9 -0.77916,0 -1.64364,0.5625 -1.92105,1.25 -0.30132,0.74674 -0.53617,0.54544 -0.58333,-0.5 -0.0551,-1.22105 0.67669,-1.75 2.42105,-1.75 2.49123,0 2.5,0.0333 2.5,9.5 0,5.225 -0.225,9.5 -0.5,9.5 -0.275,0 -0.5,-4.05 -0.5,-9 z m -172.72764,4 c 0,-2.475 0.19502,-3.4875 0.43337,-2.25 0.23836,1.2375 0.23836,3.2625 0,4.5 -0.23835,1.2375 -0.43337,0.225 -0.43337,-2.25 z m 130.54014,3.31689 c 0.72187,-0.28887 1.58438,-0.25335 1.91667,0.0789 0.33229,0.33229 -0.25834,0.56864 -1.3125,0.52522 -1.16495,-0.048 -1.4019,-0.28494 -0.60417,-0.60416 z M 454.40499,390.75 452.5,388.5 l 2.25,1.90499 c 2.11444,1.79022 2.70524,2.59501 1.90499,2.59501 -0.18976,0 -1.20226,-1.0125 -2.25,-2.25 z M 136.15789,388 c 0,-1.375 0.22698,-1.9375 0.50439,-1.25 0.27741,0.6875 0.27741,1.8125 0,2.5 -0.27741,0.6875 -0.50439,0.125 -0.50439,-1.25 z m 179.92106,-3.58333 c 0.048,-1.16495 0.28494,-1.4019 0.60416,-0.60417 0.28887,0.72187 0.25335,1.58438 -0.0789,1.91667 -0.33229,0.33229 -0.56864,-0.25834 -0.52522,-1.3125 z M 132.40499,379.75 130.5,377.5 l 2.25,1.90499 c 2.11444,1.79022 2.70524,2.59501 1.90499,2.59501 -0.18976,0 -1.20226,-1.0125 -2.25,-2.25 z m -43.030704,-4.21701 c -0.30962,-0.80686 -0.331023,-2.04436 -0.04756,-2.75 0.28346,-0.70564 0.550909,-0.29765 0.59433,0.90664 0.06401,1.7755 0.788213,2.26383 3.828947,2.5819 l 3.75,0.39226 -3.781385,0.16811 c -2.520355,0.11204 -3.969118,-0.32112 -4.344329,-1.29891 z m 26.353414,0.74528 c 1.77523,-0.22091 4.92523,-0.22454 7,-0.008 2.07476,0.21648 0.6223,0.39722 -3.2277,0.40166 -3.85,0.004 -5.54754,-0.17268 -3.7723,-0.39359 z m 15.0848,-3.96138 c 0.72187,-0.28887 1.58437,-0.25335 1.91667,0.0789 0.33229,0.33229 -0.25834,0.56864 -1.3125,0.52522 -1.16495,-0.048 -1.4019,-0.28494 -0.60417,-0.60416 z M 89.398157,365.5952 c -0.296491,-0.77265 -0.354384,-2.91015 -0.128653,-4.75 0.371791,-3.03033 0.425485,-2.9469 0.570459,0.88637 L 90,365.96314 l 23.25,0.28778 23.25,0.28778 -23.28138,0.23065 c -19.225275,0.19047 -23.375308,-0.0141 -23.820463,-1.17415 z M 289.75,366.253 c 6.7375,-0.17301 17.7625,-0.17301 24.5,0 6.7375,0.17301 1.225,0.31456 -12.25,0.31456 -13.475,0 -18.9875,-0.14155 -12.25,-0.31456 z m 329.73505,0.007 23.4861,-0.2958 0.2861,-30.23193 0.2861,-30.23194 -0.0217,30.5 -0.0217,30.5 -23.75052,0.0277 -23.75053,0.0277 z m 113.23237,-0.009 23.21742,-0.2877 0.31882,-11.23165 0.31883,-11.23165 0.21375,11.75 L 757,367 733.25,366.76935 709.5,366.5387 Z M 596.27236,360 c 0,-2.475 0.19502,-3.4875 0.43337,-2.25 0.23836,1.2375 0.23836,3.2625 0,4.5 -0.23835,1.2375 -0.43337,0.225 -0.43337,-2.25 z m -270.93615,-4 c 0,-4.125 0.17651,-5.8125 0.39226,-3.75 0.21574,2.0625 0.21574,5.4375 0,7.5 -0.21575,2.0625 -0.39226,0.375 -0.39226,-3.75 z m -190,-3 c 0,-4.125 0.17651,-5.8125 0.39226,-3.75 0.21574,2.0625 0.21574,5.4375 0,7.5 -0.21575,2.0625 -0.39226,0.375 -0.39226,-3.75 z m 574.89579,4 c 0,-1.925 0.2058,-2.7125 0.45733,-1.75 0.25152,0.9625 0.25152,2.5375 0,3.5 -0.25153,0.9625 -0.45733,0.175 -0.45733,-1.75 z m -329.4195,0.31689 c 0.72187,-0.28887 1.58438,-0.25335 1.91667,0.0789 0.33229,0.33229 -0.25834,0.56864 -1.3125,0.52522 -1.16495,-0.048 -1.4019,-0.28494 -0.60417,-0.60416 z M 278.33621,349 c 0,-4.125 0.17651,-5.8125 0.39226,-3.75 0.21574,2.0625 0.21574,5.4375 0,7.5 -0.21575,2.0625 -0.39226,0.375 -0.39226,-3.75 z m 432.93615,-6 c 0,-2.475 0.19502,-3.4875 0.43337,-2.25 0.23836,1.2375 0.23836,3.2625 0,4.5 -0.23835,1.2375 -0.43337,0.225 -0.43337,-2.25 z m -113.9727,-3 c 0,-3.025 0.18747,-4.2625 0.41659,-2.75 0.22913,1.5125 0.22913,3.9875 0,5.5 -0.22912,1.5125 -0.41659,0.275 -0.41659,-2.75 z M 90.365231,334.5 c 0.0026,-5.5 0.170532,-7.62242 0.373173,-4.71648 0.202642,2.90594 0.200512,7.40594 -0.0047,10 C 90.528425,342.37758 90.362627,340 90.365231,334.5 Z M 557.15789,337 c 0,-1.375 0.22698,-1.9375 0.50439,-1.25 0.27741,0.6875 0.27741,1.8125 0,2.5 -0.27741,0.6875 -0.50439,0.125 -0.50439,-1.25 z M 324.36996,326 c 0,-5.775 0.16528,-8.1375 0.36728,-5.25 0.202,2.8875 0.202,7.6125 0,10.5 -0.202,2.8875 -0.36728,0.525 -0.36728,-5.25 z m 387.95011,-2 c 0,-3.575 0.1815,-5.0375 0.40333,-3.25 0.22182,1.7875 0.22182,4.7125 0,6.5 -0.22183,1.7875 -0.40333,0.325 -0.40333,-3.25 z m -577.95484,-6.5 c 0.003,-5.5 0.17053,-7.62242 0.37317,-4.71648 0.20265,2.90594 0.20052,7.40594 -0.005,10 -0.20525,2.59406 -0.37104,0.21648 -0.36844,-5.28352 z m 231.71372,7.91667 c 0.048,-1.16495 0.28494,-1.4019 0.60416,-0.60417 0.28887,0.72187 0.25335,1.58438 -0.0789,1.91667 -0.33229,0.33229 -0.56864,-0.25834 -0.52522,-1.3125 z M 279.36996,316 c 0,-5.775 0.16528,-8.1375 0.36728,-5.25 0.202,2.8875 0.202,7.6125 0,10.5 -0.202,2.8875 -0.36728,0.525 -0.36728,-5.25 z m 318.96625,1 c 0,-4.125 0.17651,-5.8125 0.39226,-3.75 0.21574,2.0625 0.21574,5.4375 0,7.5 -0.21575,2.0625 -0.39226,0.375 -0.39226,-3.75 z m -194.93122,3.75 -1.90499,-2.25 2.25,1.90499 c 1.2375,1.04774 2.25,2.06024 2.25,2.25 0,0.80025 -0.80479,0.20945 -2.59501,-1.90499 z M 523,316.5 c 1.29175,-1.375 2.57363,-2.5 2.84863,-2.5 0.275,0 -0.55688,1.125 -1.84863,2.5 -1.29175,1.375 -2.57363,2.5 -2.84863,2.5 -0.275,0 0.55688,-1.125 1.84863,-2.5 z m 10.87244,-6.25 c -1.24387,-1.58606 -1.2085,-1.62143 0.37756,-0.37756 1.66575,1.30637 2.19548,2.12756 1.37244,2.12756 -0.20765,0 -0.99515,-0.7875 -1.75,-1.75 z M 91.41858,285 c 0,-10.725 0.147115,-15.1125 0.326922,-9.75 0.179807,5.3625 0.179807,14.1375 0,19.5 -0.179807,5.3625 -0.326922,0.975 -0.326922,-9.75 z m 622,0 c 0,-10.725 0.14711,-15.1125 0.32692,-9.75 0.17981,5.3625 0.17981,14.1375 0,19.5 -0.17981,5.3625 -0.32692,0.975 -0.32692,-9.75 z m 41.91763,2 c 0,-4.125 0.17651,-5.8125 0.39226,-3.75 0.21574,2.0625 0.21574,5.4375 0,7.5 -0.21575,2.0625 -0.39226,0.375 -0.39226,-3.75 z M 323.46758,237 c 0,-31.075 0.1268,-43.7875 0.28178,-28.25 0.15498,15.5375 0.15498,40.9625 0,56.5 -0.15498,15.5375 -0.28178,2.825 -0.28178,-28.25 z m 275.88183,44 c 0,-4.675 0.17226,-6.5875 0.3828,-4.25 0.21053,2.3375 0.21053,6.1625 0,8.5 -0.21054,2.3375 -0.3828,0.425 -0.3828,-4.25 z M 197.41127,269 c 0,-9.625 0.14998,-13.5625 0.3333,-8.75 0.18331,4.8125 0.18331,12.6875 0,17.5 -0.18332,4.8125 -0.3333,0.875 -0.3333,-8.75 z m 169.31643,10.27827 c 1.77523,-0.22091 4.92523,-0.22454 7,-0.008 2.07476,0.21648 0.6223,0.39722 -3.2277,0.40166 -3.85,0.004 -5.54754,-0.17268 -3.7723,-0.39359 z M 133.42179,255 c 0,-11.275 0.14584,-15.8875 0.32409,-10.25 0.17825,5.6375 0.17825,14.8625 0,20.5 -0.17825,5.6375 -0.32409,1.025 -0.32409,-10.25 z m 147.02435,-13.5 c 4e-4,-17.6 0.13647,-24.65916 0.30237,-15.68703 0.1659,8.97214 0.16557,23.37214 -7.3e-4,32 -0.1663,8.62787 -0.30204,1.28703 -0.30164,-16.31297 z M 240.41127,253 c 0,-9.625 0.14998,-13.5625 0.3333,-8.75 0.18331,4.8125 0.18331,12.6875 0,17.5 -0.18332,4.8125 -0.3333,0.875 -0.3333,-8.75 z m 90.99372,14.75 -1.90499,-2.25 2.25,1.90499 c 1.2375,1.04774 2.25,2.06024 2.25,2.25 0,0.80025 -0.80479,0.20945 -2.59501,-1.90499 z M 756.36996,254 c 0,-5.775 0.16528,-8.1375 0.36728,-5.25 0.202,2.8875 0.202,7.6125 0,10.5 -0.202,2.8875 -0.36728,0.525 -0.36728,-5.25 z m -44.21207,5 c 0,-1.375 0.22698,-1.9375 0.50439,-1.25 0.27741,0.6875 0.27741,1.8125 0,2.5 -0.27741,0.6875 -0.50439,0.125 -0.50439,-1.25 z m -113.88553,-4 c 0,-2.475 0.19502,-3.4875 0.43337,-2.25 0.23836,1.2375 0.23836,3.2625 0,4.5 -0.23835,1.2375 -0.43337,0.225 -0.43337,-2.25 z m 44.01365,-7.5 c 0.008,-2.75 0.20172,-3.75631 0.43157,-2.23625 0.22986,1.52006 0.22371,3.77006 -0.0136,5 -0.23736,1.22994 -0.42542,-0.0137 -0.41792,-2.76375 z m -45.09106,-5 c 0.0204,-1.65 0.2445,-2.20394 0.49804,-1.23097 0.25354,0.97297 0.23687,2.32297 -0.0371,3 -0.27393,0.67703 -0.48137,-0.11903 -0.46099,-1.76903 z M 196,236.56642 c 0,-2.97806 -0.36483,-3.48884 -2.75,-3.85017 -2.55956,-0.38774 -2.52493,-0.42696 0.5,-0.56642 3.14997,-0.14522 3.25,-0.0267 3.25,3.85017 0,2.2 -0.225,4 -0.5,4 -0.275,0 -0.5,-1.54511 -0.5,-3.43358 z M 755.15789,237 c 0,-1.375 0.22698,-1.9375 0.50439,-1.25 0.27741,0.6875 0.27741,1.8125 0,2.5 -0.27741,0.6875 -0.50439,0.125 -0.50439,-1.25 z M 61.299664,231 c 0,-3.025 0.187466,-4.2625 0.41659,-2.75 0.229125,1.5125 0.229125,3.9875 0,5.5 -0.229124,1.5125 -0.41659,0.275 -0.41659,-2.75 z M 70.25,235.28375 c 1.5125,-0.22913 3.9875,-0.22913 5.5,0 1.5125,0.22912 0.275,0.41659 -2.75,0.41659 -3.025,0 -4.2625,-0.18747 -2.75,-0.41659 z m 489.82895,-0.86708 c 0.048,-1.16495 0.28494,-1.4019 0.60416,-0.60417 0.28887,0.72187 0.25335,1.58437 -0.0789,1.91667 -0.33229,0.33229 -0.56864,-0.25834 -0.52522,-1.3125 z M 596.15789,234 c 0,-1.375 0.22698,-1.9375 0.50439,-1.25 0.27741,0.6875 0.27741,1.8125 0,2.5 -0.27741,0.6875 -0.50439,0.125 -0.50439,-1.25 z m -444.37437,0.2616 c 2.90594,-0.20265 7.40594,-0.20052 10,0.005 2.59406,0.20525 0.21648,0.37104 -5.28352,0.36844 -5.5,-0.003 -7.62242,-0.17053 -4.71648,-0.37317 z m 26.48023,-0.97918 c 1.52006,-0.22986 3.77006,-0.22371 5,0.0136 1.22994,0.23736 -0.0137,0.42542 -2.76375,0.41792 -2.75,-0.008 -3.75631,-0.20172 -2.23625,-0.43157 z m 575.8152,-1.86575 c 0.048,-1.16495 0.28494,-1.4019 0.60416,-0.60417 0.28887,0.72187 0.25335,1.58437 -0.0789,1.91667 -0.33229,0.33229 -0.56864,-0.25834 -0.52522,-1.3125 z M 672.75,229.33772 c 0.6875,-0.27741 1.8125,-0.27741 2.5,0 0.6875,0.27741 0.125,0.50439 -1.25,0.50439 -1.375,0 -1.9375,-0.22698 -1.25,-0.50439 z m 13,0 c 0.6875,-0.27741 1.8125,-0.27741 2.5,0 0.6875,0.27741 0.125,0.50439 -1.25,0.50439 -1.375,0 -1.9375,-0.22698 -1.25,-0.50439 z m -90.67105,-2.92105 c 0.048,-1.16495 0.28494,-1.4019 0.60416,-0.60417 0.28887,0.72187 0.25335,1.58437 -0.0789,1.91667 -0.33229,0.33229 -0.56864,-0.25834 -0.52522,-1.3125 z m -1,-7 c 0.048,-1.16495 0.28494,-1.4019 0.60416,-0.60417 0.28887,0.72187 0.25335,1.58437 -0.0789,1.91667 -0.33229,0.33229 -0.56864,-0.25834 -0.52522,-1.3125 z M 241.32007,213 c 0,-3.575 0.1815,-5.0375 0.40333,-3.25 0.22182,1.7875 0.22182,4.7125 0,6.5 -0.22183,1.7875 -0.40333,0.325 -0.40333,-3.25 z m 351.75888,1.41667 c 0.048,-1.16495 0.28494,-1.4019 0.60416,-0.60417 0.28887,0.72187 0.25335,1.58437 -0.0789,1.91667 -0.33229,0.33229 -0.56864,-0.25834 -0.52522,-1.3125 z M 549.92431,211.25 547.5,208.5 l 2.75,2.42431 c 1.5125,1.33338 2.75,2.57088 2.75,2.75 0,0.78428 -0.8098,0.14598 -3.07569,-2.42431 z m 88.15464,1.16667 c 0.048,-1.16495 0.28494,-1.4019 0.60416,-0.60417 0.28887,0.72187 0.25335,1.58437 -0.0789,1.91667 -0.33229,0.33229 -0.56864,-0.25834 -0.52522,-1.3125 z M 642,213.62244 c 0,-0.20765 0.7875,-0.99515 1.75,-1.75 1.58606,-1.24387 1.62143,-1.2085 0.37756,0.37756 C 642.82119,213.91575 642,214.44548 642,213.62244 Z M 744.87244,211.25 c -1.24387,-1.58606 -1.2085,-1.62143 0.37756,-0.37756 1.66575,1.30637 2.19548,2.12756 1.37244,2.12756 -0.20765,0 -0.99515,-0.7875 -1.75,-1.75 z M 62.299664,207 c 0,-3.025 0.187466,-4.2625 0.41659,-2.75 0.229125,1.5125 0.229125,3.9875 0,5.5 -0.229124,1.5125 -0.41659,0.275 -0.41659,-2.75 z M 646,210.62244 c 0,-0.20765 0.7875,-0.99515 1.75,-1.75 1.58606,-1.24387 1.62143,-1.2085 0.37756,0.37756 C 646.82119,210.91575 646,211.44548 646,210.62244 Z m -8.92105,-4.20577 c 0.048,-1.16495 0.28494,-1.4019 0.60416,-0.60417 0.28887,0.72187 0.25335,1.58437 -0.0789,1.91667 -0.33229,0.33229 -0.56864,-0.25834 -0.52522,-1.3125 z M 739.87244,206.25 c -1.24387,-1.58606 -1.2085,-1.62143 0.37756,-0.37756 1.66575,1.30637 2.19548,2.12756 1.37244,2.12756 -0.20765,0 -0.99515,-0.7875 -1.75,-1.75 z M 69.767909,201.27527 c 1.79735,-0.22256 4.49735,-0.21797 6,0.0102 1.50265,0.22818 0.03209,0.41027 -3.267909,0.40466 -3.3,-0.006 -4.529441,-0.1923 -2.732091,-0.41486 z M 133.30987,196.5 c 0.006,-3.3 0.1923,-4.52944 0.41486,-2.73209 0.22256,1.79735 0.21797,4.49735 -0.0102,6 -0.22818,1.50265 -0.41027,0.0321 -0.40466,-3.26791 z m 26.46656,4.7665 c 2.35204,-0.21124 5.95204,-0.20827 8,0.007 2.04796,0.21487 0.12357,0.38771 -4.27643,0.38408 -4.4,-0.004 -6.07561,-0.17944 -3.72357,-0.39069 z m 476.30252,-0.84983 c 0.048,-1.16495 0.28494,-1.4019 0.60416,-0.60417 0.28887,0.72187 0.25335,1.58437 -0.0789,1.91667 -0.33229,0.33229 -0.56864,-0.25834 -0.52522,-1.3125 z m -452.8152,-0.13425 c 1.52006,-0.22986 3.77006,-0.22371 5,0.0136 1.22994,0.23736 -0.0137,0.42542 -2.76375,0.41792 -2.75,-0.008 -3.75631,-0.20172 -2.23625,-0.43157 z m 15.49791,-0.98968 c 1.24391,-0.23919 3.04391,-0.23011 4,0.0202 0.95609,0.25029 -0.0617,0.446 -2.26166,0.4349 -2.2,-0.0111 -2.98225,-0.21589 -1.73834,-0.45508 z m 399.98834,0.045 c 0.6875,-0.27741 1.8125,-0.27741 2.5,0 0.6875,0.27741 0.125,0.50439 -1.25,0.50439 -1.375,0 -1.9375,-0.22698 -1.25,-0.50439 z m -387.5,-1.02705 c 0.9625,-0.25152 2.5375,-0.25152 3.5,0 0.9625,0.25153 0.175,0.45733 -1.75,0.45733 -1.925,0 -2.7125,-0.2058 -1.75,-0.45733 z m 396.5,0.0271 c 0.6875,-0.27741 1.8125,-0.27741 2.5,0 0.6875,0.27741 0.125,0.50439 -1.25,0.50439 -1.375,0 -1.9375,-0.22698 -1.25,-0.50439 z m -385,-1 c 0.6875,-0.27741 1.8125,-0.27741 2.5,0 0.6875,0.27741 0.125,0.50439 -1.25,0.50439 -1.375,0 -1.9375,-0.22698 -1.25,-0.50439 z m 18.81429,-1.04459 c -0.54268,-1.4252 -0.42782,-1.54006 0.5598,-0.5598 0.68342,0.67834 0.99067,1.48524 0.68278,1.79313 -0.30789,0.30789 -0.86705,-0.24711 -1.24258,-1.23333 z M 616.75,197.33772 c 0.6875,-0.27741 1.8125,-0.27741 2.5,0 0.6875,0.27741 0.125,0.50439 -1.25,0.50439 -1.375,0 -1.9375,-0.22698 -1.25,-0.50439 z m -384,-1 c 0.6875,-0.27741 1.8125,-0.27741 2.5,0 0.6875,0.27741 0.125,0.50439 -1.25,0.50439 -1.375,0 -1.9375,-0.22698 -1.25,-0.50439 z m 393.51903,-0.0307 c 0.97297,-0.25354 2.32297,-0.23687 3,0.0371 0.67703,0.27393 -0.11903,0.48137 -1.76903,0.46099 -1.65,-0.0204 -2.20394,-0.2445 -1.23097,-0.49804 z m 56.54347,-1.99012 c 0.72187,-0.28887 1.58438,-0.25335 1.91667,0.0789 0.33229,0.33229 -0.25834,0.56864 -1.3125,0.52522 -1.16495,-0.048 -1.4019,-0.28494 -0.60417,-0.60416 z m 26.9375,0.0208 c 0.6875,-0.27741 1.8125,-0.27741 2.5,0 0.6875,0.27741 0.125,0.50439 -1.25,0.50439 -1.375,0 -1.9375,-0.22698 -1.25,-0.50439 z m -15.97357,-1.07122 c 2.35204,-0.21124 5.95204,-0.20827 8,0.007 2.04796,0.21487 0.12357,0.38771 -4.27643,0.38408 -4.4,-0.004 -6.07561,-0.17944 -3.72357,-0.39069 z m -136.69748,-1.84983 c 0.048,-1.16495 0.28494,-1.4019 0.60416,-0.60417 0.28887,0.72187 0.25335,1.58437 -0.0789,1.91667 -0.33229,0.33229 -0.56864,-0.25834 -0.52522,-1.3125 z M 92.272364,186 c 0,-2.475 0.195016,-3.4875 0.433369,-2.25 0.238353,1.2375 0.238353,3.2625 0,4.5 -0.238353,1.2375 -0.433369,0.225 -0.433369,-2.25 z m 364.540136,3.31689 c 0.72187,-0.28887 1.58438,-0.25335 1.91667,0.0789 0.33229,0.33229 -0.25834,0.56864 -1.3125,0.52522 -1.16495,-0.048 -1.4019,-0.28494 -0.60417,-0.60416 z M 279.32814,182.5 c 0.004,-3.85 0.18518,-5.30246 0.40166,-3.2277 0.21647,2.07477 0.21284,5.22477 -0.008,7 -0.22091,1.77524 -0.39803,0.0777 -0.39359,-3.7723 z M 134.15789,181 c 0,-1.375 0.22698,-1.9375 0.50439,-1.25 0.27741,0.6875 0.27741,1.8125 0,2.5 -0.27741,0.6875 -0.50439,0.125 -0.50439,-1.25 z m -40.999995,-5 c 0,-1.375 0.226973,-1.9375 0.504386,-1.25 0.277412,0.6875 0.277412,1.8125 0,2.5 -0.277413,0.6875 -0.504386,0.125 -0.504386,-1.25 z m 41.921055,-2.58333 c 0.048,-1.16495 0.28494,-1.4019 0.60416,-0.60417 0.28887,0.72187 0.25335,1.58437 -0.0789,1.91667 -0.3323,0.33229 -0.56864,-0.25834 -0.52522,-1.3125 z M 553.75,166.33772 c 0.6875,-0.27741 1.8125,-0.27741 2.5,0 0.6875,0.27741 0.125,0.50439 -1.25,0.50439 -1.375,0 -1.9375,-0.22698 -1.25,-0.50439 z M 278.27236,161 c 0,-2.475 0.19502,-3.4875 0.43337,-2.25 0.23836,1.2375 0.23836,3.2625 0,4.5 -0.23835,1.2375 -0.43337,0.225 -0.43337,-2.25 z m 46.0826,-9.5 c -0.003,-4.95 0.16605,-7.10108 0.37577,-4.78017 0.20972,2.3209 0.21222,6.3709 0.006,9 C 324.5296,158.34892 324.358,156.45 324.35496,151.5 Z M 141,156.68709 c 0,-0.1721 1.4625,-1.6346 3.25,-3.25 l 3.25,-2.93709 -2.93709,3.25 C 141.82513,156.77946 141,157.45965 141,156.68709 Z m 296,-4.06465 c 0,-0.20765 0.7875,-0.99515 1.75,-1.75 1.58606,-1.24387 1.62143,-1.2085 0.37756,0.37756 C 437.82119,152.91575 437,153.44548 437,152.62244 Z M 277.27236,146 c 0,-2.475 0.19502,-3.4875 0.43337,-2.25 0.23836,1.2375 0.23836,3.2625 0,4.5 -0.23835,1.2375 -0.43337,0.225 -0.43337,-2.25 z m -117.45986,0.31689 c 0.72187,-0.28887 1.58437,-0.25335 1.91667,0.0789 0.33229,0.33229 -0.25834,0.56864 -1.3125,0.52522 -1.16495,-0.048 -1.4019,-0.28494 -0.60417,-0.60416 z m 20.9375,0.0208 c 0.6875,-0.27741 1.8125,-0.27741 2.5,0 0.6875,0.27741 0.125,0.50439 -1.25,0.50439 -1.375,0 -1.9375,-0.22698 -1.25,-0.50439 z M 187.232,144 c 0,-1.925 0.2058,-2.7125 0.45733,-1.75 0.25152,0.9625 0.25152,2.5375 0,3.5 -0.25153,0.9625 -0.45733,0.175 -0.45733,-1.75 z m -17.482,1.33772 c 0.6875,-0.27741 1.8125,-0.27741 2.5,0 0.6875,0.27741 0.125,0.50439 -1.25,0.50439 -1.375,0 -1.9375,-0.22698 -1.25,-0.50439 z M 478.40499,143.75 476.5,141.5 l 2.25,1.90499 c 1.2375,1.04774 2.25,2.06024 2.25,2.25 0,0.80025 -0.80479,0.20945 -2.59501,-1.90499 z M 276.232,134 c 0,-1.925 0.2058,-2.7125 0.45733,-1.75 0.25152,0.9625 0.25152,2.5375 0,3.5 -0.25153,0.9625 -0.45733,0.175 -0.45733,-1.75 z m 49.07787,-8.5 c 0.006,-3.3 0.1923,-4.52944 0.41486,-2.73209 0.22256,1.79735 0.21797,4.49735 -0.0102,6 -0.22818,1.50265 -0.41027,0.0321 -0.40466,-3.26791 z M 195,125.5 c 1.29175,-1.375 2.57363,-2.5 2.84863,-2.5 0.275,0 -0.55688,1.125 -1.84863,2.5 -1.29175,1.375 -2.57363,2.5 -2.84863,2.5 -0.275,0 0.55688,-1.125 1.84863,-2.5 z m 80.19495,-2 c 0.0204,-1.65 0.2445,-2.20394 0.49804,-1.23097 0.25354,0.97297 0.23687,2.32297 -0.0371,3 -0.27393,0.67703 -0.48137,-0.11903 -0.46099,-1.76903 z M 208,118 c 0.825,-0.53316 1.95,-0.96937 2.5,-0.96937 0.55,0 0.325,0.43621 -0.5,0.96937 -0.825,0.53316 -1.95,0.96937 -2.5,0.96937 -0.55,0 -0.325,-0.43621 0.5,-0.96937 z m 75.26375,0.28242 c 1.52006,-0.22986 3.77006,-0.22371 5,0.0136 1.22994,0.23736 -0.0138,0.42542 -2.76375,0.41792 -2.75,-0.008 -3.75631,-0.20172 -2.23625,-0.43157 z M 301.75,117.29427 c 1.2375,-0.23836 3.2625,-0.23836 4.5,0 1.2375,0.23835 0.225,0.43337 -2.25,0.43337 -2.475,0 -3.4875,-0.19502 -2.25,-0.43337 z m -97.9375,-0.97738 c 0.72187,-0.28887 1.58437,-0.25335 1.91667,0.0789 0.33229,0.3323 -0.25834,0.56864 -1.3125,0.52522 -1.16495,-0.048 -1.4019,-0.28494 -0.60417,-0.60416 z m 115.9375,-0.0226 c 1.2375,-0.23836 3.2625,-0.23836 4.5,0 1.2375,0.23835 0.225,0.43337 -2.25,0.43337 -2.475,0 -3.4875,-0.19502 -2.25,-0.43337 z m -172.9375,-0.97738 c 0.72187,-0.28887 1.58437,-0.25335 1.91667,0.0789 0.33229,0.3323 -0.25834,0.56864 -1.3125,0.52522 -1.16495,-0.048 -1.4019,-0.28494 -0.60417,-0.60416 z m 49.9375,0.0208 c 0.6875,-0.27741 1.8125,-0.27741 2.5,0 0.6875,0.27741 0.125,0.50439 -1.25,0.50439 -1.375,0 -1.9375,-0.22698 -1.25,-0.50439 z m -43.5,-1.02705 c 0.9625,-0.25152 2.5375,-0.25152 3.5,0 0.9625,0.25153 0.175,0.45733 -1.75,0.45733 -1.925,0 -2.7125,-0.2058 -1.75,-0.45733 z m 32.51166,-0.0179 c 1.24391,-0.23919 3.04391,-0.23011 4,0.0202 0.95609,0.25029 -0.0617,0.446 -2.26166,0.4349 -2.2,-0.0111 -2.98225,-0.21589 -1.73834,-0.45508 z"
         id="path4" /><path
         style="fill:#feb705"
         d="m 443.7533,379.20516 c -16.63365,-17.58564 -16.72479,-17.70684 -13.5,-17.95458 1.78568,-0.13718 5.6092,-0.50706 8.4967,-0.82196 L 444,359.85609 V 351.92804 344 h 17 17 v 8 8 h 9.08333 c 4.99584,0 8.93334,0.38736 8.75,0.86079 -0.69381,1.7917 -33.34867,36.13715 -34.31768,36.09437 -0.55861,-0.0247 -8.55167,-8.01216 -17.76235,-17.75 z m -77.38037,-45.84637 c 0.38058,-13.61635 0.91349,-24.97854 1.18425,-25.24931 0.27077,-0.27076 2.85782,1.84384 5.74901,4.69911 2.89118,2.85528 5.93447,5.19141 6.76285,5.19141 0.82838,0 3.72231,-2.25 6.43096,-5 2.70865,-2.75 5.18099,-5 5.49409,-5 0.31309,0 3.14853,3.0375 6.30097,6.75 3.15244,3.7125 8.19763,8.775 11.21153,11.25 3.01391,2.475 5.47767,4.95 5.47503,5.5 -0.003,0.55 -2.24959,3.22075 -4.99321,5.935 -2.74363,2.71426 -4.98841,5.33516 -4.98841,5.82424 0,0.48908 2.50426,3.51469 5.56503,6.72358 l 5.56502,5.83435 -7.31502,0.55804 c -4.02327,0.30692 -15.37431,0.82411 -25.22454,1.14931 l -17.90951,0.59128 z M 526,356.99189 c -9.625,-0.36244 -17.681,-0.73389 -17.90222,-0.82544 -0.22122,-0.0915 2.14128,-2.83304 5.25,-6.09221 3.10872,-3.25917 5.65222,-6.21111 5.65222,-6.55986 0,-0.34876 -2.30729,-3.07372 -5.12731,-6.05547 l -5.12731,-5.42138 10.77068,-11.26876 c 5.92387,-6.19783 11.15388,-11.41801 11.62224,-11.60042 0.46837,-0.1824 3.26487,1.7301 6.21445,4.25 2.94958,2.51991 5.9038,4.58165 6.56492,4.58165 0.66113,0 3.61086,-2.27815 6.55495,-5.06255 4.48919,-4.24569 5.43505,-4.77009 5.86203,-3.25 0.28001,0.9969 0.65677,12.16255 0.83724,24.81255 l 0.32811,23 -7,0.0754 c -3.85,0.0415 -14.875,-0.2211 -24.5,-0.58354 z m -76,-22.87777 c -1.375,-0.43514 -2.43817,-1.20133 -2.36259,-1.70265 0.0756,-0.50131 0.45347,-4.84897 0.83977,-9.66148 l 0.70236,-8.75001 -6.33977,-2.9992 c -3.48687,-1.64956 -7.09974,-2.99956 -8.02859,-2.99999 -0.92886,-4.3e-4 -4.07886,3.1342 -7,6.96584 -2.92115,3.83165 -5.90921,6.98165 -6.64014,7 -1.8665,0.0469 -12.76879,-9.5949 -16.80542,-14.86238 -3.94478,-5.14763 -4.04859,-4.92597 5.68666,-12.14301 l 6.82416,-5.05895 -3.22769,-7.70115 -3.22768,-7.70114 -5.46054,0.45896 c -3.00329,0.25244 -7.48553,0.47744 -9.96053,0.5 l -4.5,0.041 -0.27822,-13.75 -0.27822,-13.75 h 3.84456 c 2.11451,0 6.45892,0.48329 9.65424,1.07398 3.92054,0.72475 6.13889,0.74477 6.82208,0.0616 C 411.06375,248.33625 417,235.2822 417,234.32379 c 0,-0.12865 -3.61053,-2.98237 -8.02341,-6.34161 l -8.0234,-6.1077 1.95409,-2.74427 C 405.43358,215.58235 419.72338,202 420.92973,202 c 0.50804,0 3.58797,3.2625 6.84429,7.25 6.65075,8.14412 6.8773,8.20573 15.74885,4.2823 l 5.70698,-2.52389 L 448.86493,200.7542 448.5,190.5 l 8,-0.81293 c 9.99671,-1.01583 18.10912,-0.14807 18.94351,2.02632 0.33564,0.87467 0.12578,5.12874 -0.46636,9.45348 -0.59214,4.32475 -0.77163,8.35665 -0.39887,8.9598 0.98293,1.5904 11.0691,5.87333 13.83154,5.87333 1.55924,0 3.28791,-1.26481 5.12528,-3.75 3.60654,-4.87815 8.65057,-10.25 9.62448,-10.25 1.13243,0 13.42086,11.68245 16.87239,16.04037 l 2.97964,3.7621 -7.97284,5.84877 c -4.38506,3.21682 -7.95938,6.29876 -7.94293,6.84876 0.0164,0.55 1.26392,4.15 2.77215,8 l 2.74223,7 3.94489,-0.0205 c 2.16969,-0.0113 6.555,-0.3186 9.74514,-0.68293 5.53772,-0.63245 5.84324,-0.54937 6.75,1.8356 1.08217,2.84633 1.11039,18.60079 0.0401,22.36783 -0.70423,2.47856 -0.79355,2.49703 -10.4127,2.15356 l -9.70237,-0.34645 -2.46012,5.56276 c -4.44755,10.0567 -4.60209,9.50169 4.45055,15.98299 l 8.07496,5.78132 -1.95101,2.73994 C 518.06147,309.12678 504.1599,322 502.59569,322 c -0.76906,0 -3.80057,-3.15 -6.7367,-7 -2.93613,-3.85 -6.10089,-7 -7.03279,-7 -2.85307,0 -13.65265,5.10536 -14.28491,6.75299 -0.32728,0.85289 -0.10325,5.14267 0.49785,9.53284 0.79442,5.80212 0.79211,8.28292 -0.008,9.08348 -1.3063,1.3063 -21.36997,1.90332 -25.03069,0.74481 z m 21.91347,-44.68106 c 6.43,-1.90951 13.07318,-7.73187 16.27555,-14.26456 3.19987,-6.52758 3.23591,-19.76208 0.0702,-25.78497 -3.49768,-6.65453 -6.95061,-10.0732 -13.45904,-13.3255 -7.22019,-3.60797 -15.40868,-4.09225 -23.36358,-1.38174 -6.60815,2.25163 -14.50871,10.15219 -16.76034,16.76034 -3.20927,9.41868 -1.41523,21.99462 4.14631,29.06497 7.14916,9.08869 20.46184,12.68187 33.09087,8.93146 z m -127.99918,-9.95882 c -9.27509,-9.08917 -16.98766,-16.79193 -17.13905,-17.11726 -0.42377,-0.91069 34.62276,-33.20924 35.47476,-32.6932 0.4125,0.24984 0.75614,3.0152 0.76365,6.14524 0.0243,10.12623 0.0806,10.19098 8.86073,10.19098 h 7.64113 l -0.008,16.4635 -0.008,16.46351 -8,0.28649 -8,0.2865 -0.29044,8.25 c -0.17655,5.01473 -0.71025,8.25 -1.36096,8.25 -0.58878,0 -8.65922,-7.43659 -17.93431,-16.52576 z m 216.73382,7.89111 c -0.35807,-4.23588 -0.89152,-7.9421 -1.18546,-8.23603 -0.29394,-0.29394 -4.00579,-0.78079 -8.24854,-1.08188 L 543.5,277.5 v -16 -16 l 8.89563,-0.29106 8.89564,-0.29105 -0.59696,-8.45895 C 560.36599,231.80652 560.45931,228 560.90169,228 c 2.14848,0 35.09948,31.90209 35.09508,33.97792 -0.003,1.27382 -31.76105,31.94161 -33.97214,32.80556 -0.39902,0.15591 -1.01846,-3.18225 -1.37652,-7.41813 z M 366.61388,202.34651 c -0.35066,-8.16558 -0.91016,-19.74137 -1.24334,-25.72398 l -0.60578,-10.87747 10.36762,0.61329 c 5.70219,0.3373 17.24306,0.90291 25.64638,1.2569 l 15.27877,0.64361 -5.52877,5.79633 C 407.48794,177.24318 405,180.36187 405,180.98562 c 0,0.62376 2.3316,3.59942 5.18132,6.61259 l 5.18133,5.47848 -3.93133,3.16215 c -5.1437,4.13731 -12.21749,11.25689 -16.15659,16.26116 l -3.14858,4 -6.0643,-5.9699 -6.06429,-5.96991 -6.37306,6.31642 -6.37306,6.31641 z m 183.4115,8.54771 -6.47463,-5.88705 -5.68492,5.6256 -5.68493,5.62561 -11.58477,-11.7253 -11.58478,-11.7253 4.99433,-5.60351 C 516.75255,184.12234 519,181.26624 519,180.85738 c 0,-0.40886 -2.46567,-3.40659 -5.47926,-6.66163 l -5.47925,-5.91825 14.72925,-0.63901 c 22.09803,-0.95869 35.75048,-0.94065 35.55128,0.047 -0.0979,0.48534 -0.49296,11.66715 -0.87792,24.84848 -0.38497,13.18133 -0.75488,24.02935 -0.82202,24.1067 -0.0671,0.0773 -3.03566,-2.50854 -6.5967,-5.74642 z M 445,172 v -8 l -3.25,-0.009 c -1.7875,-0.005 -5.60943,-0.2921 -8.49317,-0.63848 l -5.24317,-0.62979 12.29159,-13.11152 c 6.76037,-7.21134 14.02958,-15.02402 16.1538,-17.36152 2.12422,-2.3375 4.60834,-4.25 5.52026,-4.25 0.91193,0 9.14386,7.81478 18.29319,17.36618 l 16.63514,17.36618 -5.20382,0.62513 c -2.8621,0.34382 -6.66632,0.62904 -8.45382,0.63382 L 480,164 v 8 8 H 462.5 445 Z m -236.25203,2.63921 c -6.11179,-2.28853 -10.41304,-6.25663 -13.42036,-12.3809 -7.12118,-14.50198 -0.6073,-32.89827 13.93075,-39.34275 7.25336,-3.21529 20.3808,-3.32465 26.24164,-0.21859 8.91389,4.72407 13.44353,12.75402 13.47804,23.89331 0.0365,11.77746 -5.73737,21.18532 -16.31332,26.58077 -5.26478,2.68589 -18.49562,3.49808 -23.91675,1.46816 z"
         id="path3" /><path
         style="fill:#020202"
         d="m 319.01391,440.24845 c -5.46108,-2.73901 -5.9827,-4.78216 -5.99917,-23.49845 L 313,400 h -4 c -5.12332,0 -5.40467,-2.38625 -0.5219,-4.4264 1.91296,-0.79929 4.39729,-2.94283 5.52074,-4.76342 1.88945,-3.06196 2.31913,-4.32835 3.58296,-10.56018 0.25097,-1.2375 1.12273,-2.25 1.93725,-2.25 1.19823,0 1.48095,1.71813 1.48095,9 v 9 h 7 c 6.27878,0 7,0.20135 7,1.95431 0,1.71686 -0.82014,1.99024 -6.75,2.25 l -6.75,0.29569 0.0517,16.36844 c 0.047,14.86054 0.22579,16.49572 1.94113,17.75 4.70122,3.43762 9.68263,-0.0608 10.89662,-7.65269 0.50746,-3.1735 1.04766,-4.02565 2.38335,-3.75967 1.3621,0.27124 1.65511,1.18411 1.38628,4.31893 -0.55082,6.42308 -3.01015,10.50286 -7.58326,12.57988 -5.10258,2.31751 -7.17615,2.34325 -11.56195,0.14356 z M 195.36844,434.25 c 0.92096,-10.33625 2.54101,-171.81689 1.88717,-188.10756 l -0.57625,-14.35757 -4.58968,0.60208 c -2.52432,0.33115 -16.72372,1.07609 -31.55421,1.65543 -14.83049,0.57934 -27.15737,1.24619 -27.39306,1.48188 -0.60098,0.60097 1.78912,119.92193 2.5184,125.72574 l 0.59685,4.75 H 112.97384 89.69001 l 0.649591,-15.75 c 0.357276,-8.6625 0.951085,-38.20102 1.319576,-65.64116 l 0.669984,-49.89116 -15.16458,0.48676 L 62,235.6912 l 0.006,-9.0956 c 0.0033,-5.00258 0.286679,-12.70027 0.629739,-17.10598 l 0.623745,-8.01038 14.174966,0.36653 14.174966,0.36654 1.221822,-15.58251 c 1.45408,-18.54458 4.543759,-31.71402 9.822762,-41.8685 11.57373,-22.26275 35.788,-32.03793 75.34601,-30.41679 7.975,0.32682 18.22785,1.13029 22.7841,1.78547 l 8.28411,1.19124 -5.96502,2.86293 c -8.95276,4.29691 -14.32453,11.85573 -15.73416,22.14015 l -0.61756,4.50554 -5.62573,-0.47516 c -3.09416,-0.26133 -6.47295,-0.64653 -7.50842,-0.85599 -3.74059,-0.75667 -17.62892,1.4507 -22.61024,3.59361 -11.53756,4.96332 -15.69502,14.96541 -17.52323,42.1577 L 132.76111,202 h 15.50852 c 22.3217,0 63.1622,-2.59219 88.63901,-5.62602 l 5.40863,-0.64407 -0.72473,8.38505 c -0.3986,4.61177 -0.87655,50.46004 -1.06211,101.88504 -0.29787,82.54865 -0.0107,103.1112 1.7983,128.75 L 242.7697,441 H 218.76835 194.76701 Z M 90,438 c 0,-1.64912 0.666667,-2 3.8,-2 2.09,0 4.34,-0.54 5,-1.2 0.875706,-0.87571 1.2,-8.70329 1.2,-28.96482 0,-26.4268 -0.09321,-27.8147 -1.934259,-28.8 C 97.001899,376.46583 94.751899,376 93.065741,376 90.625226,376 90,375.57488 90,373.91547 c 0,-2.05907 0.265679,-2.08045 21.75,-1.75 20.87738,0.32111 21.94852,0.43483 26.69803,2.83453 6.46291,3.2654 8.7696,6.57915 9.33626,13.41234 0.59596,7.18654 -0.14133,9.78578 -4.03312,14.21828 -4.66047,5.30798 -8.55035,6.57101 -22.00117,7.14367 L 110,410.27454 v 10.92847 C 110,434.66467 110.58976,436 116.53518,436 c 3.79815,0 4.46482,0.29863 4.46482,2 0,1.91398 -0.66667,2 -15.5,2 C 90.666667,440 90,439.914 90,438 Z m 40.8919,-34.4441 c 7.83196,-4.05006 8.22099,-20.1597 0.60731,-25.14837 -3.09887,-2.03046 -17.11428,-3.10618 -19.49921,-1.49662 -1.16797,0.78825 -1.57369,3.80163 -1.83289,13.61351 -0.18309,6.93064 -0.0606,13.31072 0.27217,14.17795 0.50675,1.32057 1.95223,1.49273 8.89601,1.05952 4.8761,-0.30421 9.636,-1.2128 11.55661,-2.20599 z M 153,438.5 c 0,-0.88435 0.92347,-1.50628 2.25,-1.51531 4.68001,-0.0319 4.81685,-0.5931 4.52497,-18.55914 L 159.5,401.5 l -3.75,-0.31037 c -2.49317,-0.20634 -3.75,-0.80338 -3.75,-1.78138 0,-1.89047 0.98819,-2.164 9.75,-2.69874 l 7.25,-0.44247 v 5.56226 5.56226 l 2.943,-4.64062 C 176.62048,395.37532 184.66352,392.66352 189,397 c 2.84064,2.84064 2.69301,8.49982 -0.27242,10.44284 -4.51511,2.95841 -8.98543,-0.90434 -7.27679,-6.28779 0.52142,-1.64285 0.26762,-1.89417 -1.45726,-1.44311 -5.3574,1.401 -9.93667,12.2826 -10.73936,25.51973 C 168.64529,435.27252 169.4333,437 174.62244,437 c 2.33561,0 3.37756,0.46274 3.37756,1.5 0,1.25333 -2.05556,1.5 -12.5,1.5 -10.44444,0 -12.5,-0.24667 -12.5,-1.5 z m 95,0 c 0,-0.88435 0.92347,-1.50628 2.25,-1.51531 4.68001,-0.0319 4.81685,-0.5931 4.52497,-18.55914 L 254.5,401.5 l -3.25,-0.31336 c -2.44002,-0.23526 -3.25,-0.79601 -3.25,-2.25 0,-1.6894 0.73407,-1.93838 5.75,-1.95029 3.1625,-0.008 6.7625,-0.285 8,-0.61664 2.04535,-0.54813 2.25,-0.25618 2.25,3.20983 v 3.81279 l 3.25,-3.13483 c 7.78399,-7.50816 19.02527,-6.86547 24.44567,1.39763 1.49836,2.28417 1.86274,5.3869 2.1488,18.29711 0.35869,16.18801 0.59344,17.0031 4.90553,17.03245 1.32653,0.009 2.25,0.63096 2.25,1.51531 0,1.24638 -1.94444,1.5 -11.5,1.5 -9.55556,0 -11.5,-0.25362 -11.5,-1.5 0,-0.825 0.8632,-1.5 1.91821,-1.5 4.96821,0 5.08179,-0.33875 5.08179,-15.15665 0,-15.79876 -0.92407,-18.92403 -6.13223,-20.7396 -2.61289,-0.91086 -3.83304,-0.79429 -6.71585,0.64158 -6.49745,3.23627 -7.5109,5.74771 -7.97772,19.76974 C 263.71484,435.31338 264.2538,437 269.12244,437 271.0136,437 272,437.51418 272,438.5 c 0,1.25 -2,1.5 -12,1.5 -10,0 -12,-0.25 -12,-1.5 z m 30.36208,-80.75 c 0.35041,-4.5375 1.13778,-31.875 1.74971,-60.75 1.45816,-68.80619 0.23049,-125.90173 -3.53707,-164.5 -0.69791,-7.15 -1.22523,-13.06383 -1.17182,-13.14185 0.26351,-0.38496 49.63783,-2.6368 49.91115,-2.27633 0.17439,0.23 -0.0142,6.94318 -0.41909,14.91818 -1.62875,32.08115 -2.16715,131.98059 -0.97277,180.5 0.66341,26.95 1.4511,50.0125 1.75041,51.25 l 0.54422,2.25 h -24.24593 -24.24593 z m 318.07328,6 c 0.41287,-1.96205 1.25294,-21.3199 3.04923,-70.26421 0.9084,-24.7516 -2.1626,-62.78884 -6.86055,-84.97452 -0.81395,-3.84381 -1.26606,-7.20258 -1.0047,-7.46394 0.42121,-0.42121 38.422,-4.89789 42.48565,-5.00502 1.26532,-0.0334 1.87801,1.86242 2.89501,8.95769 1.53304,10.69554 2.29247,11.07429 10.29291,5.1333 7.98911,-5.93257 13.35239,-8.71893 23.70709,-12.31642 9.32323,-3.23913 9.81632,-3.29998 26.5,-3.27064 15.92898,0.028 17.49709,0.20328 24.89015,2.78181 14.60837,5.09507 22.79618,11.6542 27.78161,22.25539 5.39764,11.47772 5.65203,15.19186 5.73051,83.66656 l 0.0719,62.75 H 732.88888 709.8036 l 0.61428,-5.75 c 1.27159,-11.90268 2.5323,-36.63025 3.17376,-62.25 0.99801,-39.86003 -1.10332,-52.20125 -10.41395,-61.16169 -7.84462,-7.54957 -20.96609,-9.86274 -35.93129,-6.3343 -6.47315,1.52621 -17.95853,6.82185 -22.13952,10.208 l -2.39309,1.93814 0.20929,61.67493 L 643.1324,366 H 619.54715 595.9619 Z"
         id="path2" /></g></g></svg>
